<?xml version="1.0" encoding="UTF-8" ?>
<!DOCTYPE svg PUBLIC "-//W3C//DTD SVG 1.1//EN" "http://www.w3.org/Graphics/SVG/1.1/DTD/svg11.dtd">
<svg width="1080pt" height="627pt" viewBox="0 0 1080 627" version="1.1" xmlns="http://www.w3.org/2000/svg">
<g id="#b6ebdbff">
<path fill="#b6ebdb" opacity="1.00" d=" M 0.00 0.00 L 1080.00 0.00 L 1080.00 627.00 L 0.00 627.00 L 0.00 0.00 M 494.13 17.84 C 461.63 23.21 429.79 33.17 400.57 48.48 C 339.04 80.29 288.98 133.69 261.14 197.13 C 246.89 229.39 238.69 264.25 236.42 299.42 C 237.96 299.36 239.51 299.29 241.06 299.23 C 245.54 218.83 285.27 141.36 347.00 89.83 C 365.51 73.65 386.64 60.77 408.38 49.41 C 439.43 34.23 473.12 24.73 507.40 20.62 C 532.86 18.08 558.66 18.23 583.98 22.00 C 617.82 27.20 651.07 37.43 681.20 53.82 C 700.41 64.38 718.95 76.31 735.44 90.81 C 796.58 142.38 835.61 219.40 840.34 299.31 C 841.46 299.31 843.70 299.32 844.82 299.32 C 842.56 264.37 834.43 229.74 820.36 197.65 C 789.02 125.83 729.11 66.83 656.46 37.31 C 638.03 29.44 618.63 24.16 599.07 19.98 C 564.54 13.35 528.92 13.01 494.13 17.84 M 522.60 88.42 C 519.15 95.10 519.06 103.48 522.61 110.14 C 525.98 116.03 531.20 120.71 534.04 126.93 C 536.21 131.36 536.14 136.43 536.32 141.26 C 531.84 143.04 527.01 142.11 522.34 142.46 C 518.18 142.67 513.45 142.19 510.02 145.00 C 506.51 149.21 504.84 154.55 502.40 159.38 C 499.45 166.08 495.13 172.04 490.74 177.85 C 481.42 189.73 469.00 198.79 455.69 205.73 C 435.29 216.58 413.14 223.50 392.19 233.11 C 377.98 239.35 364.41 246.90 350.56 253.86 C 339.38 259.84 327.37 266.98 322.27 279.23 C 320.15 285.06 318.80 291.81 321.23 297.76 C 322.15 299.53 323.35 302.17 325.79 301.80 C 333.59 301.08 338.64 294.24 345.47 291.25 C 351.93 288.16 359.24 289.85 366.09 289.88 C 365.37 290.41 364.67 290.98 364.00 291.58 C 384.98 290.56 406.03 291.58 427.04 291.07 C 440.36 291.24 453.68 291.23 467.01 291.16 C 468.83 290.94 471.08 291.50 472.48 289.97 C 500.98 290.58 529.50 289.84 558.00 290.47 C 583.88 290.52 609.76 290.32 635.64 290.57 C 659.43 290.84 683.25 290.95 707.04 289.96 C 714.90 289.89 722.88 289.77 730.61 291.51 C 737.42 293.28 741.88 299.28 748.17 302.10 C 750.68 303.35 753.51 303.56 756.25 303.94 C 759.02 299.85 760.22 294.76 759.25 289.89 C 757.82 282.77 754.23 276.06 749.03 270.98 C 741.72 263.38 732.19 258.54 723.99 252.04 C 720.85 249.19 716.41 248.95 712.65 247.36 C 702.79 243.44 693.49 238.26 683.63 234.33 C 656.64 223.40 628.65 213.49 605.03 196.01 C 591.41 186.02 579.63 173.20 572.26 157.90 C 570.20 153.60 569.13 148.69 565.93 145.02 C 564.02 143.68 561.69 143.11 559.46 142.58 L 560.30 141.25 C 555.16 141.13 549.33 139.66 544.63 142.17 C 543.99 142.06 542.72 141.83 542.09 141.71 C 542.48 138.13 542.96 134.49 542.37 130.90 C 539.88 119.56 528.22 112.67 526.64 101.02 C 525.41 93.73 530.86 85.61 538.61 85.61 C 538.86 85.86 539.36 86.34 539.60 86.59 C 540.23 86.22 541.49 85.49 542.12 85.12 C 542.25 85.51 542.50 86.31 542.63 86.70 L 542.81 85.50 C 547.60 86.93 552.71 89.22 554.96 94.00 C 556.37 97.03 558.67 99.72 562.11 100.39 C 562.75 100.11 564.04 99.55 564.68 99.27 C 565.38 95.66 563.50 92.51 561.07 90.04 C 557.65 86.13 554.14 81.86 549.20 79.85 C 539.80 76.12 527.95 79.75 522.60 88.42 M 869.96 350.02 C 862.76 352.25 855.63 355.85 850.82 361.81 C 845.16 368.74 844.09 378.61 846.74 386.98 C 848.77 393.64 854.52 398.53 860.77 401.17 C 872.00 405.80 884.22 406.81 896.07 408.92 C 905.26 410.62 915.10 412.42 922.47 418.61 C 929.21 424.20 930.80 433.96 928.71 442.10 C 927.15 448.68 922.36 454.09 916.76 457.65 C 899.87 467.52 877.24 466.16 861.64 454.38 C 856.36 450.31 851.51 444.14 852.50 437.08 C 852.55 434.28 855.15 432.82 856.72 430.88 C 853.90 428.86 849.81 428.74 847.26 431.27 C 842.56 435.41 843.05 442.66 845.45 447.91 C 849.13 455.26 856.64 459.61 864.08 462.37 C 874.00 465.73 884.60 466.79 895.04 466.48 C 905.73 465.69 916.72 463.15 925.44 456.58 C 933.17 451.02 938.04 441.60 937.66 432.03 C 937.89 423.77 934.59 415.20 927.85 410.18 C 917.20 401.97 903.40 400.13 890.56 397.76 C 881.99 396.23 873.27 395.02 865.13 391.85 C 860.19 389.90 855.15 386.47 853.75 381.05 C 852.77 374.76 853.82 367.94 857.46 362.62 C 861.75 355.70 869.72 352.12 877.42 350.50 C 890.75 348.00 905.40 349.58 916.92 357.13 C 923.38 361.10 927.68 367.75 929.85 374.91 C 934.29 372.37 934.55 366.51 932.90 362.20 C 929.74 355.54 922.39 352.41 915.73 350.38 C 900.89 346.22 884.83 345.72 869.96 350.02 M 44.41 349.11 C 44.36 387.55 44.45 425.99 44.38 464.43 C 47.50 464.48 50.62 464.48 53.74 464.47 C 51.74 431.17 49.21 397.91 47.16 364.61 C 46.85 362.47 46.78 360.32 47.61 358.28 C 48.86 359.09 50.19 359.90 50.98 361.21 C 74.86 394.95 98.99 428.50 122.88 462.24 C 124.89 466.19 129.99 463.85 133.52 464.48 C 133.66 426.03 133.51 387.57 133.59 349.12 C 130.48 349.07 127.37 349.09 124.26 349.03 C 126.18 382.83 128.86 416.58 130.92 450.37 C 131.34 451.97 131.67 455.22 129.11 454.68 C 126.77 452.73 125.40 449.87 123.55 447.49 C 100.22 414.80 77.09 381.97 53.71 349.33 C 50.65 348.78 47.50 349.19 44.41 349.11 M 152.37 349.11 C 152.50 387.58 152.47 426.07 152.38 464.55 C 152.69 464.55 153.31 464.55 153.62 464.55 C 154.00 465.03 154.78 466.00 155.17 466.48 C 180.72 465.29 206.35 466.82 231.90 465.64 L 231.71 464.50 L 232.44 464.48 C 232.41 461.05 232.41 457.62 232.39 454.20 C 217.60 458.44 202.18 459.74 186.95 461.40 C 179.90 461.29 172.93 462.67 165.87 462.34 C 163.06 461.51 161.18 459.05 161.41 456.08 C 161.33 440.43 161.49 424.78 161.45 409.13 C 161.30 406.21 164.12 403.64 167.04 404.20 C 185.30 404.21 203.36 407.56 221.28 410.71 C 221.17 407.49 221.22 404.27 220.94 401.07 C 221.24 400.92 221.84 400.61 222.13 400.45 C 217.78 399.80 213.37 400.03 208.99 400.04 C 194.96 400.20 180.92 399.86 166.89 400.15 L 166.97 401.30 L 165.78 401.35 C 163.64 400.32 161.13 398.74 161.36 396.01 C 161.27 383.31 161.33 370.61 161.36 357.92 C 161.23 356.08 162.04 354.41 162.72 352.75 C 164.67 351.82 166.76 351.11 168.97 351.32 C 186.09 351.83 203.20 353.40 220.07 356.39 C 224.23 357.19 228.40 357.99 232.39 359.43 C 232.41 355.97 232.45 352.52 232.37 349.07 C 205.70 349.07 179.04 349.03 152.37 349.11 M 248.39 349.12 C 248.68 387.63 248.37 426.14 248.54 464.66 L 247.72 465.67 C 249.46 465.90 251.21 466.12 252.97 466.17 C 276.33 466.17 299.70 466.00 323.07 466.08 C 324.71 465.76 327.28 466.52 328.09 464.55 L 328.50 464.55 C 328.50 461.11 328.51 457.67 328.51 454.23 C 320.78 456.46 312.83 457.82 304.87 458.89 C 295.62 460.06 286.37 461.47 277.03 461.55 C 271.17 461.90 265.12 463.33 259.40 461.34 C 256.68 458.15 257.44 453.82 257.35 449.96 C 257.62 436.63 257.46 423.30 257.48 409.97 C 257.40 408.41 258.03 406.98 258.51 405.55 C 261.98 403.47 266.13 404.32 269.96 404.27 C 285.88 405.24 301.69 407.72 317.34 410.79 C 317.24 407.55 317.32 404.32 317.16 401.10 C 317.40 400.93 317.88 400.60 318.12 400.43 C 310.12 399.48 302.06 400.31 294.04 400.11 C 285.03 399.91 276.02 400.13 267.02 399.99 C 265.12 399.95 263.16 400.05 261.45 400.97 C 259.23 400.37 257.30 398.25 257.41 395.88 C 257.25 383.92 257.42 371.95 257.34 359.98 C 257.46 357.58 257.25 354.80 259.02 352.90 C 260.58 351.38 262.90 351.28 264.95 351.30 C 286.31 351.97 307.70 354.12 328.53 359.01 C 328.48 355.73 328.47 352.46 328.55 349.19 C 301.83 348.92 275.11 349.11 248.39 349.12 M 344.90 349.24 C 344.74 374.82 344.66 400.42 344.94 426.00 C 344.71 428.66 344.70 431.34 344.96 434.00 C 344.76 436.00 344.75 438.00 344.97 440.00 C 344.85 448.20 344.30 456.51 345.27 464.65 L 346.31 464.60 C 345.92 464.88 345.12 465.43 344.73 465.71 C 347.47 466.05 350.23 466.19 352.99 466.06 C 364.72 465.62 376.48 466.61 388.18 465.63 C 387.57 465.35 386.37 464.78 385.76 464.49 C 401.29 463.14 416.26 455.20 425.26 442.35 C 433.27 431.00 436.89 416.76 435.82 402.96 C 435.41 388.26 429.24 373.71 418.57 363.51 C 408.32 353.78 394.05 348.68 379.98 349.06 C 368.29 349.23 356.58 348.85 344.90 349.24 M 451.40 349.20 C 451.52 387.63 451.44 426.06 451.44 464.49 C 451.77 464.50 452.41 464.52 452.73 464.53 C 453.04 464.90 453.66 465.64 453.97 466.02 C 474.30 466.24 494.65 465.83 514.99 466.10 C 519.62 466.11 524.29 465.87 528.90 466.57 C 528.90 466.06 528.92 465.03 528.93 464.52 C 529.57 464.50 530.85 464.48 531.49 464.46 C 531.42 461.08 531.44 457.69 531.52 454.31 C 516.31 458.38 500.60 460.00 484.98 461.43 C 478.01 461.23 471.05 463.23 464.11 462.01 C 461.09 461.08 460.25 457.75 460.35 454.96 C 460.28 419.66 460.37 384.37 460.30 349.07 C 457.33 349.04 454.36 349.05 451.40 349.20 M 545.62 349.37 C 545.84 387.71 545.77 426.06 545.67 464.40 C 545.95 464.41 546.52 464.44 546.80 464.46 C 547.08 464.86 547.65 465.67 547.93 466.08 C 568.58 466.38 589.26 465.93 609.92 466.13 C 615.21 466.12 620.51 466.42 625.78 465.78 L 625.75 464.56 C 625.66 461.33 625.86 458.11 626.09 454.90 L 625.58 454.49 C 608.01 458.66 589.99 460.99 571.96 461.76 C 567.63 462.14 563.20 462.81 558.89 462.02 C 554.90 461.03 554.66 456.35 554.67 453.00 C 554.85 438.64 554.74 424.28 554.77 409.92 C 554.59 407.48 556.18 404.51 558.85 404.38 C 564.86 403.94 570.92 404.31 576.90 405.05 C 589.55 406.28 602.13 408.19 614.55 410.88 C 614.51 407.62 614.47 404.36 614.60 401.11 C 613.55 400.27 612.36 399.91 611.03 400.01 C 596.02 400.09 581.00 400.10 565.99 400.04 C 563.75 400.12 561.32 399.77 559.36 401.11 C 556.51 400.80 554.53 397.82 554.69 395.07 C 554.69 386.70 554.70 378.34 554.70 369.97 C 554.82 364.28 554.09 358.45 555.87 352.93 C 557.79 352.03 559.80 351.11 562.00 351.30 C 578.75 351.76 595.49 353.29 612.02 356.13 C 616.63 357.04 621.39 357.59 625.73 359.54 C 625.75 356.06 625.80 352.58 625.79 349.11 C 599.07 349.19 572.32 348.72 545.62 349.37 M 642.33 349.14 C 642.41 387.57 642.41 426.00 642.36 464.43 C 645.48 464.47 648.60 464.46 651.73 464.47 C 649.71 431.63 647.24 398.83 645.20 365.99 C 644.93 363.40 644.27 360.67 645.69 358.28 C 646.65 358.96 647.72 359.55 648.44 360.53 C 664.82 383.52 681.13 406.55 697.55 429.51 C 705.56 441.21 714.29 452.42 722.03 464.29 C 725.18 464.55 728.34 464.49 731.50 464.47 C 731.62 426.04 731.40 387.60 731.60 349.16 C 728.28 349.06 724.97 349.03 721.66 349.16 C 722.93 354.00 722.29 359.08 723.03 364.01 C 724.85 391.01 726.63 418.00 728.51 444.99 C 728.47 448.27 729.32 451.66 728.35 454.86 C 726.54 455.05 725.69 453.36 724.76 452.20 C 700.61 418.07 676.30 384.03 652.17 349.88 C 649.45 348.12 645.50 349.45 642.33 349.14 M 750.33 349.07 C 750.35 387.58 750.28 426.09 750.36 464.59 C 750.65 464.59 751.22 464.59 751.51 464.59 C 751.91 464.91 752.70 465.57 753.10 465.90 C 777.12 466.67 801.18 465.44 825.20 466.35 C 826.64 466.19 828.99 466.58 829.25 464.52 C 829.54 464.51 830.14 464.49 830.43 464.49 C 830.36 461.07 830.39 457.67 830.46 454.26 C 815.64 458.29 800.30 459.86 785.07 461.37 C 778.01 461.32 771.03 462.72 763.96 462.35 C 762.25 461.47 760.03 460.70 759.65 458.56 C 759.03 455.07 759.33 451.50 759.28 447.97 C 759.54 434.74 759.20 421.50 759.46 408.28 C 759.42 405.43 762.40 403.87 764.94 404.18 C 783.11 404.24 801.09 407.49 818.91 410.66 C 818.82 407.49 818.99 404.33 819.08 401.16 C 819.35 400.97 819.88 400.57 820.14 400.38 C 802.10 399.62 784.00 400.32 765.95 399.99 C 765.33 400.25 764.10 400.77 763.48 401.04 C 761.09 400.61 759.18 398.40 759.32 395.94 C 759.22 383.61 759.30 371.27 759.28 358.94 C 759.31 356.43 759.46 353.20 762.10 351.99 C 766.23 350.63 770.66 351.63 774.91 351.62 C 793.51 352.88 812.36 354.20 830.35 359.40 C 830.40 355.97 830.41 352.54 830.41 349.11 C 803.72 349.00 777.02 349.11 750.33 349.07 M 950.27 349.11 C 950.27 352.56 950.22 356.01 950.45 359.46 C 958.81 355.67 967.93 354.02 976.90 352.28 C 980.64 351.86 984.91 350.22 988.33 352.65 C 989.42 353.81 989.67 355.47 990.26 356.91 C 990.51 392.79 990.16 428.68 990.44 464.56 C 993.39 464.47 996.35 464.47 999.32 464.39 C 999.18 430.59 999.30 396.80 999.26 363.00 C 999.30 360.26 999.13 357.48 999.72 354.80 C 1000.75 351.37 1004.87 350.94 1007.87 351.57 C 1018.54 353.21 1029.27 355.34 1039.29 359.45 C 1039.20 356.03 1039.19 352.61 1039.36 349.20 C 1009.67 348.95 979.97 349.09 950.27 349.11 M 881.90 467.64 C 888.28 468.21 894.77 468.31 901.15 467.51 C 897.85 466.58 894.41 467.01 891.04 466.93 C 887.98 466.92 884.80 466.44 881.90 467.64 M 1018.92 497.94 C 1001.89 510.34 987.17 525.60 973.74 541.74 C 972.08 543.75 969.88 545.45 969.12 548.03 C 987.49 535.10 1005.08 520.87 1020.54 504.52 C 1023.05 501.69 1025.64 498.79 1027.01 495.20 C 1023.96 494.83 1021.22 496.06 1018.92 497.94 M 708.45 530.79 C 707.02 531.63 707.34 533.42 707.11 534.82 C 708.25 534.51 709.87 535.10 710.65 533.94 C 712.97 530.93 715.41 528.03 717.97 525.22 C 714.02 525.36 711.44 528.67 708.45 530.79 M 440.93 555.12 C 444.25 555.31 447.51 553.94 450.82 554.41 C 451.91 555.22 452.89 556.17 453.98 557.01 C 456.16 556.73 458.44 556.23 460.10 554.70 C 458.36 554.17 456.68 553.49 455.17 552.49 C 455.06 553.07 454.84 554.22 454.73 554.80 C 454.07 553.92 453.41 553.04 452.76 552.18 C 451.49 552.33 450.23 552.48 448.98 552.63 C 449.45 551.04 450.01 549.48 450.70 547.98 C 446.61 548.78 442.67 551.22 440.93 555.12 M 270.19 550.22 C 267.31 552.65 274.01 552.60 273.47 550.20 C 272.40 549.57 271.31 549.58 270.19 550.22 M 290.61 557.63 C 289.76 558.44 289.62 559.63 289.34 560.71 C 293.40 557.10 297.69 553.76 301.74 550.14 C 297.32 551.34 293.63 554.28 290.61 557.63 M 847.31 550.03 C 846.53 550.09 844.52 551.49 846.10 552.03 C 847.35 552.31 848.48 552.05 849.48 551.25 C 850.51 549.90 848.11 549.48 847.31 550.03 M 996.91 550.41 C 997.89 552.84 1000.34 550.94 1001.98 550.38 C 1000.28 550.35 998.59 550.35 996.91 550.41 M 189.35 561.86 C 193.41 561.29 194.35 556.89 196.07 553.88 C 197.14 552.98 198.57 552.75 199.84 552.25 C 194.68 552.14 189.35 556.58 189.35 561.86 M 622.26 561.98 C 625.66 560.29 628.29 556.93 627.63 552.94 C 624.46 554.94 622.41 558.21 622.26 561.98 M 868.01 567.64 C 871.02 566.73 873.59 564.89 876.19 563.16 C 876.35 562.77 876.67 561.99 876.83 561.60 C 874.29 564.21 870.58 565.11 868.01 567.64 M 438.08 567.69 C 440.96 566.87 443.51 565.24 445.74 563.27 C 443.12 564.57 439.85 565.18 438.08 567.69 M 574.11 586.27 C 570.79 588.73 566.95 590.34 563.56 592.68 C 557.84 596.95 551.57 600.50 546.36 605.44 C 542.96 608.62 537.62 611.43 538.20 616.86 C 540.31 616.61 542.49 616.37 544.36 615.28 C 562.26 605.34 576.76 590.67 590.84 576.05 C 584.86 578.76 579.74 582.95 574.11 586.27 M 913.49 585.62 C 905.95 589.82 899.40 595.50 892.03 599.96 C 887.17 603.40 882.54 607.19 878.48 611.55 C 876.86 612.87 877.47 615.12 877.27 616.93 C 878.56 616.68 879.92 616.61 881.17 616.12 C 889.31 611.97 896.88 606.77 903.63 600.60 C 908.52 597.20 912.03 592.25 916.94 588.86 C 921.32 584.70 925.58 580.37 929.81 576.04 C 924.04 578.66 919.04 582.61 913.49 585.62 Z" />
<path fill="#b6ebdb" opacity="1.00" d=" M 404.99 257.87 C 448.90 233.02 493.41 209.22 536.99 183.78 C 543.07 184.12 548.54 187.36 553.59 190.52 C 560.58 195.24 567.81 199.60 575.15 203.77 C 620.93 229.47 667.43 254.00 711.88 281.96 C 709.90 281.96 707.93 281.86 705.97 281.77 C 660.29 280.65 614.62 282.23 568.94 281.94 C 507.85 280.54 446.74 280.66 385.63 280.67 C 379.25 280.77 372.88 280.33 366.51 280.34 C 379.03 272.38 392.10 265.25 404.99 257.87 Z" />
<path fill="#b6ebdb" opacity="1.00" d=" M 355.50 352.45 C 357.57 351.69 359.74 351.18 361.97 351.31 C 369.32 351.45 376.73 350.71 384.02 352.05 C 395.37 353.74 406.20 359.45 413.46 368.42 C 423.50 380.39 427.34 396.62 426.27 411.99 C 425.14 425.38 420.30 438.92 410.67 448.57 C 403.20 456.46 392.68 461.08 382.00 462.44 C 373.50 462.91 364.97 462.76 356.47 462.43 C 353.91 460.02 353.72 456.35 353.76 453.06 C 353.87 441.38 353.50 429.68 354.12 418.01 C 353.59 402.99 354.21 387.97 353.88 372.94 C 354.82 366.13 352.30 358.90 355.50 352.45 Z" />
</g>
<g id="#000813ff">
<path fill="#000813" opacity="1.00" d=" M 494.13 17.84 C 528.92 13.01 564.54 13.35 599.07 19.98 C 618.63 24.16 638.03 29.44 656.46 37.31 C 729.11 66.83 789.02 125.83 820.36 197.65 C 834.43 229.74 842.56 264.37 844.82 299.32 C 843.70 299.32 841.46 299.31 840.34 299.31 C 835.61 219.40 796.58 142.38 735.44 90.81 C 718.95 76.31 700.41 64.38 681.20 53.82 C 651.07 37.43 617.82 27.20 583.98 22.00 C 558.66 18.23 532.86 18.08 507.40 20.62 C 473.12 24.73 439.43 34.23 408.38 49.41 C 386.64 60.77 365.51 73.65 347.00 89.83 C 285.27 141.36 245.54 218.83 241.06 299.23 C 239.51 299.29 237.96 299.36 236.42 299.42 C 238.69 264.25 246.89 229.39 261.14 197.13 C 288.98 133.69 339.04 80.29 400.57 48.48 C 429.79 33.17 461.63 23.21 494.13 17.84 Z" />
</g>
<g id="#000914ff">
<path fill="#000914" opacity="1.00" d=" M 522.60 88.42 C 527.95 79.75 539.80 76.12 549.20 79.85 C 554.14 81.86 557.65 86.13 561.07 90.04 C 563.50 92.51 565.38 95.66 564.68 99.27 C 564.04 99.55 562.75 100.11 562.11 100.39 C 558.67 99.72 556.37 97.03 554.96 94.00 C 552.71 89.22 547.60 86.93 542.81 85.50 L 542.63 86.70 C 542.50 86.31 542.25 85.51 542.12 85.12 C 541.49 85.49 540.23 86.22 539.60 86.59 C 539.36 86.34 538.86 85.86 538.61 85.61 C 530.86 85.61 525.41 93.73 526.64 101.02 C 528.22 112.67 539.88 119.56 542.37 130.90 C 542.96 134.49 542.48 138.13 542.09 141.71 C 542.72 141.83 543.99 142.06 544.63 142.17 C 549.55 142.73 554.51 142.38 559.46 142.58 C 561.69 143.11 564.02 143.68 565.93 145.02 C 569.13 148.69 570.20 153.60 572.26 157.90 C 579.63 173.20 591.41 186.02 605.03 196.01 C 628.65 213.49 656.64 223.40 683.63 234.33 C 693.49 238.26 702.79 243.44 712.65 247.36 C 716.41 248.95 720.85 249.19 723.99 252.04 C 732.19 258.54 741.72 263.38 749.03 270.98 C 754.23 276.06 757.82 282.77 759.25 289.89 C 760.22 294.76 759.02 299.85 756.25 303.94 C 753.51 303.56 750.68 303.35 748.17 302.10 C 741.88 299.28 737.42 293.28 730.61 291.51 C 722.88 289.77 714.90 289.89 707.04 289.96 C 683.25 290.95 659.43 290.84 635.64 290.57 C 609.76 290.32 583.88 290.52 558.00 290.47 C 529.50 289.84 500.98 290.58 472.48 289.97 C 437.02 289.86 401.56 290.06 366.09 289.88 C 359.24 289.85 351.93 288.16 345.47 291.25 C 338.64 294.24 333.59 301.08 325.79 301.80 C 323.35 302.17 322.15 299.53 321.23 297.76 C 318.80 291.81 320.15 285.06 322.27 279.23 C 327.37 266.98 339.38 259.84 350.56 253.86 C 364.41 246.90 377.98 239.35 392.19 233.11 C 413.14 223.50 435.29 216.58 455.69 205.73 C 469.00 198.79 481.42 189.73 490.74 177.85 C 495.13 172.04 499.45 166.08 502.40 159.38 C 504.84 154.55 506.51 149.21 510.02 145.00 C 513.45 142.19 518.18 142.67 522.34 142.46 C 527.01 142.11 531.84 143.04 536.32 141.26 C 536.14 136.43 536.21 131.36 534.04 126.93 C 531.20 120.71 525.98 116.03 522.61 110.14 C 519.06 103.48 519.15 95.10 522.60 88.42 M 525.32 88.98 C 528.61 87.03 531.67 84.65 535.19 83.10 C 537.32 81.95 539.95 82.71 542.06 81.47 C 535.37 79.85 529.42 84.16 525.32 88.98 M 542.98 81.71 C 549.39 83.18 554.28 87.70 557.94 92.96 C 555.63 86.71 549.93 81.50 542.98 81.71 M 523.55 92.13 C 522.39 95.73 522.32 99.53 522.76 103.26 C 525.29 113.67 534.62 120.68 537.27 131.00 C 538.40 134.32 536.25 138.86 539.60 141.22 C 539.60 137.51 539.68 133.71 538.54 130.13 C 535.77 120.48 528.42 113.11 524.70 103.90 C 522.25 100.22 523.70 96.06 524.96 92.27 C 524.61 92.24 523.91 92.17 523.55 92.13 M 510.61 149.53 C 508.35 151.78 508.36 155.08 508.22 158.04 C 506.85 160.34 504.53 162.45 504.87 165.37 C 508.59 163.10 509.43 158.33 511.95 155.00 C 515.44 149.19 522.75 147.85 528.97 147.34 C 535.28 146.46 541.74 146.86 547.97 148.10 C 549.96 148.31 551.99 148.48 553.91 149.13 C 557.05 149.68 560.12 150.60 563.06 151.84 C 570.16 166.65 578.18 181.45 590.18 192.91 C 603.90 206.30 621.52 214.56 638.83 222.27 C 646.33 225.10 653.69 228.30 661.26 230.96 C 676.91 237.14 692.89 242.57 707.99 250.04 C 721.79 256.80 735.27 264.87 745.85 276.16 C 748.26 278.61 749.77 281.94 752.68 283.87 C 752.45 283.45 751.98 282.60 751.75 282.18 C 747.55 269.97 735.84 263.10 725.71 256.27 C 718.64 250.58 709.60 248.55 701.65 244.43 C 682.38 235.11 662.34 227.56 642.67 219.15 C 624.75 211.13 606.41 202.70 592.11 188.90 C 579.79 177.05 571.95 161.62 564.31 146.56 C 552.69 144.37 540.86 142.82 529.01 143.47 C 522.57 143.78 515.27 144.56 510.61 149.53 M 524.34 150.76 C 526.26 152.07 528.31 153.16 530.37 154.25 L 530.68 152.51 C 530.93 152.41 531.44 152.22 531.69 152.12 L 531.01 153.03 C 535.78 154.51 540.32 156.78 544.33 159.77 C 544.85 160.00 546.99 162.15 545.10 161.75 C 541.20 160.07 538.10 156.60 533.73 156.03 C 535.55 157.91 538.09 158.85 539.86 160.79 C 533.40 160.39 529.50 154.50 524.25 151.48 C 521.41 151.31 517.95 150.43 515.75 152.81 C 511.08 157.48 508.72 163.80 505.31 169.35 C 495.15 186.92 479.87 201.04 462.84 211.85 C 461.23 212.71 459.14 215.03 457.69 212.03 L 458.59 214.48 C 457.71 215.03 456.83 215.56 455.94 216.08 C 456.30 215.32 457.01 213.79 457.37 213.03 C 427.52 227.71 395.71 237.96 365.83 252.59 C 351.76 259.66 337.77 268.71 329.54 282.54 C 326.65 287.04 325.24 292.22 323.44 297.19 C 340.07 288.38 356.47 279.12 373.06 270.24 C 391.35 260.23 409.79 250.48 427.91 240.17 L 427.76 241.54 C 426.61 242.03 425.48 242.54 424.35 243.05 C 424.89 243.45 425.44 243.84 426.00 244.24 C 427.40 242.40 429.69 241.66 431.65 240.59 L 432.29 240.60 L 432.51 239.72 L 432.79 239.78 C 432.94 239.65 433.25 239.39 433.40 239.26 C 436.52 237.77 439.56 236.08 442.46 234.19 L 443.39 233.76 C 443.47 233.73 443.62 233.66 443.70 233.63 C 446.47 232.55 448.98 230.94 451.41 229.24 L 449.66 228.92 C 450.06 228.46 450.85 227.53 451.25 227.06 C 468.54 217.51 484.71 205.23 504.07 200.05 C 515.73 193.61 527.05 186.50 538.97 180.50 C 549.46 186.52 560.68 191.30 570.55 198.35 C 572.67 200.20 575.65 198.96 578.08 199.87 C 633.08 231.05 687.77 262.81 742.97 293.63 L 742.81 293.76 C 746.78 295.69 750.48 298.13 754.48 300.00 C 754.44 298.29 754.65 296.55 754.26 294.89 C 752.72 291.99 749.94 290.06 747.31 288.25 C 746.15 287.23 745.06 286.14 744.09 284.96 C 746.39 285.96 748.48 287.37 750.71 288.54 C 747.53 277.34 736.60 271.11 728.57 263.58 C 727.43 262.11 725.56 262.35 723.94 262.46 C 691.60 238.71 651.13 231.24 616.07 212.74 C 601.94 205.45 588.76 195.79 579.07 183.05 C 572.04 173.85 567.12 163.31 561.96 153.01 C 558.80 151.60 555.45 150.73 552.16 149.72 C 546.97 149.27 541.81 148.46 536.59 148.60 L 536.32 149.15 C 532.28 149.25 528.18 149.39 524.34 150.76 M 502.62 164.05 C 496.41 175.54 487.60 185.50 477.38 193.58 C 464.16 204.04 449.12 211.93 433.76 218.73 C 411.92 228.50 389.23 236.25 367.58 246.46 C 357.00 251.62 346.41 256.99 337.04 264.19 C 331.09 269.22 325.37 276.02 325.36 284.21 C 327.12 282.23 327.95 279.64 329.54 277.53 C 336.20 268.36 345.86 261.93 355.82 256.81 C 366.25 251.50 377.10 247.07 387.60 241.90 C 393.69 239.35 399.59 236.35 405.73 233.90 C 426.17 224.66 447.53 217.29 467.04 206.10 C 480.91 198.14 493.36 187.25 501.22 173.15 C 500.69 173.15 499.61 173.15 499.08 173.14 C 500.63 170.43 504.82 167.42 502.62 164.05 M 404.99 257.87 C 392.10 265.25 379.03 272.38 366.51 280.34 C 372.88 280.33 379.25 280.77 385.63 280.67 L 386.26 281.84 C 380.12 281.65 373.96 281.68 367.86 282.31 C 365.03 282.75 361.93 282.98 359.62 284.87 C 381.06 285.15 402.49 285.79 423.93 285.67 C 442.93 286.38 461.97 285.37 480.97 286.25 C 493.97 286.24 506.97 286.20 519.97 286.24 C 529.68 286.37 539.38 285.47 549.09 286.11 C 553.80 286.54 558.58 285.78 563.25 286.64 C 552.83 286.97 542.39 286.59 531.97 286.82 C 524.00 287.56 515.99 287.14 508.01 287.24 C 473.61 286.83 439.20 286.94 404.80 287.54 C 426.19 287.72 447.58 287.96 468.97 287.99 C 480.63 288.48 492.31 287.05 503.95 288.39 C 545.31 288.46 586.66 288.39 628.02 288.42 C 635.70 288.33 643.41 288.74 651.07 287.92 C 659.39 287.57 667.71 288.09 676.03 288.19 C 689.66 287.15 703.36 288.44 717.00 287.48 C 698.00 286.68 678.98 287.25 659.98 287.11 C 631.90 287.41 603.83 287.14 575.77 286.48 C 594.85 285.95 613.96 285.55 633.04 286.15 C 661.44 286.38 689.85 286.31 718.23 285.60 C 714.33 284.11 710.16 283.51 706.01 283.26 L 705.97 281.77 C 707.93 281.86 709.90 281.96 711.88 281.96 C 667.43 254.00 620.93 229.47 575.15 203.77 C 567.81 199.60 560.58 195.24 553.59 190.52 C 548.54 187.36 543.07 184.12 536.99 183.78 C 493.41 209.22 448.90 233.02 404.99 257.87 M 481.06 212.85 C 484.43 211.29 487.63 209.42 490.89 207.66 C 491.98 207.19 492.81 206.34 493.33 205.28 C 488.94 207.27 484.82 209.83 481.06 212.85 M 460.96 223.96 C 464.30 222.35 467.55 220.56 470.78 218.75 C 473.06 217.43 475.66 216.47 477.33 214.33 C 471.74 217.29 465.88 219.89 460.96 223.96 M 423.38 244.38 C 423.64 244.64 423.64 244.64 423.38 244.38 M 421.04 244.80 C 419.69 246.36 417.70 247.08 415.97 248.10 C 402.49 255.54 389.15 263.20 375.76 270.78 C 362.21 278.64 348.31 285.90 334.89 293.96 C 361.37 280.07 387.48 265.37 413.55 250.70 C 416.56 249.03 419.45 247.11 422.67 245.85 C 422.12 245.50 421.58 245.15 421.04 244.80 M 360.13 287.16 L 360.19 287.75 C 365.84 287.91 371.49 287.55 377.14 287.44 C 371.79 284.98 365.72 286.54 360.13 287.16 M 378.69 286.71 C 385.24 289.06 392.26 287.55 399.03 287.49 C 392.32 286.38 385.45 286.46 378.69 286.71 Z" />
</g>
<g id="#d1dfeaff">
<path fill="#d1dfea" opacity="1.00" d=" M 525.32 88.98 C 529.42 84.16 535.37 79.85 542.06 81.47 C 539.95 82.71 537.32 81.95 535.19 83.10 C 531.67 84.65 528.61 87.03 525.32 88.98 Z" />
<path fill="#d1dfea" opacity="1.00" d=" M 542.98 81.71 C 549.93 81.50 555.63 86.71 557.94 92.96 C 554.28 87.70 549.39 83.18 542.98 81.71 Z" />
<path fill="#d1dfea" opacity="1.00" d=" M 847.31 550.03 C 848.11 549.48 850.51 549.90 849.48 551.25 C 848.48 552.05 847.35 552.31 846.10 552.03 C 844.52 551.49 846.53 550.09 847.31 550.03 Z" />
<path fill="#d1dfea" opacity="1.00" d=" M 189.35 561.86 C 189.35 556.58 194.68 552.14 199.84 552.25 C 198.57 552.75 197.14 552.98 196.07 553.88 C 194.35 556.89 193.41 561.29 189.35 561.86 Z" />
<path fill="#d1dfea" opacity="1.00" d=" M 868.01 567.64 C 870.58 565.11 874.29 564.21 876.83 561.60 C 876.67 561.99 876.35 562.77 876.19 563.16 C 873.59 564.89 871.02 566.73 868.01 567.64 Z" />
<path fill="#d1dfea" opacity="1.00" d=" M 438.08 567.69 C 439.85 565.18 443.12 564.57 445.74 563.27 C 443.51 565.24 440.96 566.87 438.08 567.69 Z" />
</g>
<g id="#e3f1f2ff">
<path fill="#e3f1f2" opacity="1.00" d=" M 523.55 92.13 C 523.91 92.17 524.61 92.24 524.96 92.27 C 523.70 96.06 522.25 100.22 524.70 103.90 C 528.42 113.11 535.77 120.48 538.54 130.13 C 539.68 133.71 539.60 137.51 539.60 141.22 C 536.25 138.86 538.40 134.32 537.27 131.00 C 534.62 120.68 525.29 113.67 522.76 103.26 C 522.32 99.53 522.39 95.73 523.55 92.13 Z" />
</g>
<g id="#d5f6f2ff">
<path fill="#d5f6f2" opacity="1.00" d=" M 544.63 142.17 C 549.33 139.66 555.16 141.13 560.30 141.25 L 559.46 142.58 C 554.51 142.38 549.55 142.73 544.63 142.17 Z" />
</g>
<g id="#c1e2deff">
<path fill="#c1e2de" opacity="1.00" d=" M 510.61 149.53 C 515.27 144.56 522.57 143.78 529.01 143.47 C 540.86 142.82 552.69 144.37 564.31 146.56 C 571.95 161.62 579.79 177.05 592.11 188.90 C 606.41 202.70 624.75 211.13 642.67 219.15 C 662.34 227.56 682.38 235.11 701.65 244.43 C 709.60 248.55 718.64 250.58 725.71 256.27 C 735.84 263.10 747.55 269.97 751.75 282.18 C 751.98 282.60 752.45 283.45 752.68 283.87 C 749.77 281.94 748.26 278.61 745.85 276.16 C 735.27 264.87 721.79 256.80 707.99 250.04 C 692.89 242.57 676.91 237.14 661.26 230.96 C 653.69 228.30 646.33 225.10 638.83 222.27 C 621.52 214.56 603.90 206.30 590.18 192.91 C 578.18 181.45 570.16 166.65 563.06 151.84 C 560.12 150.60 557.05 149.68 553.91 149.13 C 551.99 148.48 549.96 148.31 547.97 148.10 C 541.74 146.86 535.28 146.46 528.97 147.34 C 522.75 147.85 515.44 149.19 511.95 155.00 C 509.43 158.33 508.59 163.10 504.87 165.37 C 504.53 162.45 506.85 160.34 508.22 158.04 C 508.36 155.08 508.35 151.78 510.61 149.53 Z" />
<path fill="#c1e2de" opacity="1.00" d=" M 427.76 241.54 C 428.99 241.03 430.26 240.39 431.65 240.59 C 429.69 241.66 427.40 242.40 426.00 244.24 C 425.44 243.84 424.89 243.45 424.35 243.05 C 425.48 242.54 426.61 242.03 427.76 241.54 Z" />
</g>
<g id="#c8e4e5ff">
<path fill="#c8e4e5" opacity="1.00" d=" M 524.34 150.76 C 528.18 149.39 532.28 149.25 536.32 149.15 C 536.13 149.54 535.74 150.32 535.55 150.71 C 534.26 151.20 532.97 151.63 531.69 152.12 C 531.44 152.22 530.93 152.41 530.68 152.51 L 530.37 154.25 C 528.31 153.16 526.26 152.07 524.34 150.76 Z" />
</g>
<g id="#b6eadbff">
<path fill="#b6eadb" opacity="1.00" d=" M 536.32 149.15 L 536.59 148.60 C 541.81 148.46 546.97 149.27 552.16 149.72 C 555.45 150.73 558.80 151.60 561.96 153.01 C 567.12 163.31 572.04 173.85 579.07 183.05 C 588.76 195.79 601.94 205.45 616.07 212.74 C 651.13 231.24 691.60 238.71 723.94 262.46 C 725.56 262.35 727.43 262.11 728.57 263.58 C 736.60 271.11 747.53 277.34 750.71 288.54 C 748.48 287.37 746.39 285.96 744.09 284.96 C 745.06 286.14 746.15 287.23 747.31 288.25 C 746.27 290.35 744.92 292.29 742.97 293.63 C 687.77 262.81 633.08 231.05 578.08 199.87 C 575.65 198.96 572.67 200.20 570.55 198.35 C 560.68 191.30 549.46 186.52 538.97 180.50 C 527.05 186.50 515.73 193.61 504.07 200.05 C 484.71 205.23 468.54 217.51 451.25 227.06 C 443.38 231.27 435.49 235.46 427.91 240.17 C 409.79 250.48 391.35 260.23 373.06 270.24 C 356.47 279.12 340.07 288.38 323.44 297.19 C 325.24 292.22 326.65 287.04 329.54 282.54 C 337.77 268.71 351.76 259.66 365.83 252.59 C 395.71 237.96 427.52 227.71 457.37 213.03 C 457.01 213.79 456.30 215.32 455.94 216.08 C 456.83 215.56 457.71 215.03 458.59 214.48 L 457.69 212.03 C 459.14 215.03 461.23 212.71 462.84 211.85 C 479.87 201.04 495.15 186.92 505.31 169.35 C 508.72 163.80 511.08 157.48 515.75 152.81 C 517.95 150.43 521.41 151.31 524.25 151.48 C 529.50 154.50 533.40 160.39 539.86 160.79 C 538.09 158.85 535.55 157.91 533.73 156.03 C 538.10 156.60 541.20 160.07 545.10 161.75 C 546.99 162.15 544.85 160.00 544.33 159.77 C 540.32 156.78 535.78 154.51 531.01 153.03 L 531.69 152.12 C 532.97 151.63 534.26 151.20 535.55 150.71 C 535.74 150.32 536.13 149.54 536.32 149.15 Z" />
</g>
<g id="#c0e0dfff">
<path fill="#c0e0df" opacity="1.00" d=" M 502.62 164.05 C 504.82 167.42 500.63 170.43 499.08 173.14 C 499.61 173.15 500.69 173.15 501.22 173.15 C 493.36 187.25 480.91 198.14 467.04 206.10 C 447.53 217.29 426.17 224.66 405.73 233.90 C 399.59 236.35 393.69 239.35 387.60 241.90 C 377.10 247.07 366.25 251.50 355.82 256.81 C 345.86 261.93 336.20 268.36 329.54 277.53 C 327.95 279.64 327.12 282.23 325.36 284.21 C 325.37 276.02 331.09 269.22 337.04 264.19 C 346.41 256.99 357.00 251.62 367.58 246.46 C 389.23 236.25 411.92 228.50 433.76 218.73 C 449.12 211.93 464.16 204.04 477.38 193.58 C 487.60 185.50 496.41 175.54 502.62 164.05 Z" />
</g>
<g id="#c8dcdeff">
<path fill="#c8dcde" opacity="1.00" d=" M 481.06 212.85 C 484.82 209.83 488.94 207.27 493.33 205.28 C 492.81 206.34 491.98 207.19 490.89 207.66 C 487.63 209.42 484.43 211.29 481.06 212.85 Z" />
<path fill="#c8dcde" opacity="1.00" d=" M 460.96 223.96 C 465.88 219.89 471.74 217.29 477.33 214.33 C 475.66 216.47 473.06 217.43 470.78 218.75 C 467.55 220.56 464.30 222.35 460.96 223.96 Z" />
<path fill="#c8dcde" opacity="1.00" d=" M 996.91 550.41 C 998.59 550.35 1000.28 550.35 1001.98 550.38 C 1000.34 550.94 997.89 552.84 996.91 550.41 Z" />
</g>
<g id="#3c5257ff">
<path fill="#3c5257" opacity="1.00" d=" M 427.91 240.17 C 435.49 235.46 443.38 231.27 451.25 227.06 C 450.85 227.53 450.06 228.46 449.66 228.92 L 451.41 229.24 C 448.98 230.94 446.47 232.55 443.70 233.63 L 443.54 233.69 L 443.39 233.76 L 442.46 234.19 C 439.69 235.47 436.84 236.66 434.34 238.45 L 433.40 239.26 C 433.25 239.39 432.94 239.65 432.79 239.78 C 432.74 239.69 432.63 239.52 432.58 239.43 L 432.51 239.72 L 432.29 240.60 L 431.65 240.59 C 430.26 240.39 428.99 241.03 427.76 241.54 L 427.91 240.17 Z" />
</g>
<g id="#6e7f89ff">
<path fill="#6e7f89" opacity="1.00" d=" M 443.54 233.69 L 443.70 233.63 C 443.62 233.66 443.47 233.73 443.39 233.76 L 443.54 233.69 Z" />
</g>
<g id="#c4dcdeff">
<path fill="#c4dcde" opacity="1.00" d=" M 434.34 238.45 C 436.84 236.66 439.69 235.47 442.46 234.19 C 439.56 236.08 436.52 237.77 433.40 239.26 L 434.34 238.45 Z" />
<path fill="#c4dcde" opacity="1.00" d=" M 421.04 244.80 C 421.58 245.15 422.12 245.50 422.67 245.85 C 419.45 247.11 416.56 249.03 413.55 250.70 C 387.48 265.37 361.37 280.07 334.89 293.96 C 348.31 285.90 362.21 278.64 375.76 270.78 C 389.15 263.20 402.49 255.54 415.97 248.10 C 417.70 247.08 419.69 246.36 421.04 244.80 Z" />
<path fill="#c4dcde" opacity="1.00" d=" M 360.13 287.16 C 365.72 286.54 371.79 284.98 377.14 287.44 C 371.49 287.55 365.84 287.91 360.19 287.75 L 360.13 287.16 Z" />
<path fill="#c4dcde" opacity="1.00" d=" M 440.93 555.12 C 442.67 551.22 446.61 548.78 450.70 547.98 C 450.01 549.48 449.45 551.04 448.98 552.63 C 450.23 552.48 451.49 552.33 452.76 552.18 C 453.41 553.04 454.07 553.92 454.73 554.80 C 454.84 554.22 455.06 553.07 455.17 552.49 C 456.68 553.49 458.36 554.17 460.10 554.70 C 458.44 556.23 456.16 556.73 453.98 557.01 C 452.89 556.17 451.91 555.22 450.82 554.41 C 447.51 553.94 444.25 555.31 440.93 555.12 Z" />
</g>
<g id="#9ab7b5ff">
<path fill="#9ab7b5" opacity="1.00" d=" M 432.58 239.43 C 432.63 239.52 432.74 239.69 432.79 239.78 L 432.51 239.72 L 432.58 239.43 Z" />
</g>
<g id="#aac7c5ff">
<path fill="#aac7c5" opacity="1.00" d=" M 423.38 244.38 C 423.64 244.64 423.64 244.64 423.38 244.38 Z" />
</g>
<g id="#001214ff">
<path fill="#001214" opacity="1.00" d=" M 385.63 280.67 C 446.74 280.66 507.85 280.54 568.94 281.94 C 614.62 282.23 660.29 280.65 705.97 281.77 L 706.01 283.26 C 694.34 282.61 682.66 283.71 670.99 283.46 C 660.99 283.23 651.00 284.02 641.02 283.45 C 604.01 283.61 567.02 283.07 530.02 282.94 C 512.02 282.43 494.00 282.75 475.99 282.96 C 446.08 282.71 416.16 282.70 386.26 281.84 L 385.63 280.67 Z" />
</g>
<g id="#c9e3e4ff">
<path fill="#c9e3e4" opacity="1.00" d=" M 359.62 284.87 C 361.93 282.98 365.03 282.75 367.86 282.31 C 373.96 281.68 380.12 281.65 386.26 281.84 C 416.16 282.70 446.08 282.71 475.99 282.96 C 494.00 282.75 512.02 282.43 530.02 282.94 C 567.02 283.07 604.01 283.61 641.02 283.45 C 651.00 284.02 660.99 283.23 670.99 283.46 C 682.66 283.71 694.34 282.61 706.01 283.26 C 710.16 283.51 714.33 284.11 718.23 285.60 C 689.85 286.31 661.44 286.38 633.04 286.15 C 613.96 285.55 594.85 285.95 575.77 286.48 C 603.83 287.14 631.90 287.41 659.98 287.11 C 678.98 287.25 698.00 286.68 717.00 287.48 C 703.36 288.44 689.66 287.15 676.03 288.19 C 667.71 288.09 659.39 287.57 651.07 287.92 C 643.41 288.74 635.70 288.33 628.02 288.42 C 586.66 288.39 545.31 288.46 503.95 288.39 C 492.31 287.05 480.63 288.48 468.97 287.99 C 447.58 287.96 426.19 287.72 404.80 287.54 C 439.20 286.94 473.61 286.83 508.01 287.24 C 515.99 287.14 524.00 287.56 531.97 286.82 C 542.39 286.59 552.83 286.97 563.25 286.64 C 558.58 285.78 553.80 286.54 549.09 286.11 C 539.38 285.47 529.68 286.37 519.97 286.24 C 506.97 286.20 493.97 286.24 480.97 286.25 C 461.97 285.37 442.93 286.38 423.93 285.67 C 402.49 285.79 381.06 285.15 359.62 284.87 Z" />
</g>
<g id="#c6e2e5ff">
<path fill="#c6e2e5" opacity="1.00" d=" M 378.69 286.71 C 385.45 286.46 392.32 286.38 399.03 287.49 C 392.26 287.55 385.24 289.06 378.69 286.71 Z" />
</g>
<g id="#c4e9e6ff">
<path fill="#c4e9e6" opacity="1.00" d=" M 747.31 288.25 C 749.94 290.06 752.72 291.99 754.26 294.89 C 754.65 296.55 754.44 298.29 754.48 300.00 C 750.48 298.13 746.78 295.69 742.81 293.76 L 742.97 293.63 C 744.92 292.29 746.27 290.35 747.31 288.25 Z" />
</g>
<g id="#d1ebe9ff">
<path fill="#d1ebe9" opacity="1.00" d=" M 364.00 291.58 C 364.67 290.98 365.37 290.41 366.09 289.88 C 401.56 290.06 437.02 289.86 472.48 289.97 C 471.08 291.50 468.83 290.94 467.01 291.16 C 453.68 291.23 440.36 291.24 427.04 291.07 C 406.03 291.58 384.98 290.56 364.00 291.58 Z" />
</g>
<g id="#020518ff">
<path fill="#020518" opacity="1.00" d=" M 869.96 350.02 C 884.83 345.72 900.89 346.22 915.73 350.38 C 922.39 352.41 929.74 355.54 932.90 362.20 C 934.55 366.51 934.29 372.37 929.85 374.91 C 927.68 367.75 923.38 361.10 916.92 357.13 C 905.40 349.58 890.75 348.00 877.42 350.50 C 869.72 352.12 861.75 355.70 857.46 362.62 C 853.82 367.94 852.77 374.76 853.75 381.05 C 855.15 386.47 860.19 389.90 865.13 391.85 C 873.27 395.02 881.99 396.23 890.56 397.76 C 903.40 400.13 917.20 401.97 927.85 410.18 C 934.59 415.20 937.89 423.77 937.66 432.03 C 938.04 441.60 933.17 451.02 925.44 456.58 C 916.72 463.15 905.73 465.69 895.04 466.48 C 884.60 466.79 874.00 465.73 864.08 462.37 C 856.64 459.61 849.13 455.26 845.45 447.91 C 843.05 442.66 842.56 435.41 847.26 431.27 C 849.81 428.74 853.90 428.86 856.72 430.88 C 855.15 432.82 852.55 434.28 852.50 437.08 C 851.51 444.14 856.36 450.31 861.64 454.38 C 877.24 466.16 899.87 467.52 916.76 457.65 C 922.36 454.09 927.15 448.68 928.71 442.10 C 930.80 433.96 929.21 424.20 922.47 418.61 C 915.10 412.42 905.26 410.62 896.07 408.92 C 884.22 406.81 872.00 405.80 860.77 401.17 C 854.52 398.53 848.77 393.64 846.74 386.98 C 844.09 378.61 845.16 368.74 850.82 361.81 C 855.63 355.85 862.76 352.25 869.96 350.02 Z" />
</g>
<g id="#010418ff">
<path fill="#010418" opacity="1.00" d=" M 44.41 349.11 C 47.50 349.19 50.65 348.78 53.71 349.33 C 77.09 381.97 100.22 414.80 123.55 447.49 C 125.40 449.87 126.77 452.73 129.11 454.68 C 131.67 455.22 131.34 451.97 130.92 450.37 C 128.86 416.58 126.18 382.83 124.26 349.03 C 127.37 349.09 130.48 349.07 133.59 349.12 C 133.51 387.57 133.66 426.03 133.52 464.48 C 129.99 463.85 124.89 466.19 122.88 462.24 C 98.99 428.50 74.86 394.95 50.98 361.21 C 50.19 359.90 48.86 359.09 47.61 358.28 C 46.78 360.32 46.85 362.47 47.16 364.61 C 49.21 397.91 51.74 431.17 53.74 464.47 C 50.62 464.48 47.50 464.48 44.38 464.43 C 44.45 425.99 44.36 387.55 44.41 349.11 Z" />
<path fill="#010418" opacity="1.00" d=" M 950.27 349.11 C 979.97 349.09 1009.67 348.95 1039.36 349.20 C 1039.19 352.61 1039.20 356.03 1039.29 359.45 C 1029.27 355.34 1018.54 353.21 1007.87 351.57 C 1004.87 350.94 1000.75 351.37 999.72 354.80 C 999.13 357.48 999.30 360.26 999.26 363.00 C 999.30 396.80 999.18 430.59 999.32 464.39 C 996.35 464.47 993.39 464.47 990.44 464.56 C 990.16 428.68 990.51 392.79 990.26 356.91 C 989.67 355.47 989.42 353.81 988.33 352.65 C 984.91 350.22 980.64 351.86 976.90 352.28 C 967.93 354.02 958.81 355.67 950.45 359.46 C 950.22 356.01 950.27 352.56 950.27 349.11 Z" />
</g>
<g id="#010516ff">
<path fill="#010516" opacity="1.00" d=" M 152.37 349.11 C 179.04 349.03 205.70 349.07 232.37 349.07 C 232.45 352.52 232.41 355.97 232.39 359.43 C 228.40 357.99 224.23 357.19 220.07 356.39 C 203.20 353.40 186.09 351.83 168.97 351.32 C 166.76 351.11 164.67 351.82 162.72 352.75 C 162.04 354.41 161.23 356.08 161.36 357.92 C 161.33 370.61 161.27 383.31 161.36 396.01 C 161.13 398.74 163.64 400.32 165.78 401.35 L 166.97 401.30 C 184.96 401.00 202.96 401.45 220.94 401.07 C 221.22 404.27 221.17 407.49 221.28 410.71 C 203.36 407.56 185.30 404.21 167.04 404.20 C 164.12 403.64 161.30 406.21 161.45 409.13 C 161.49 424.78 161.33 440.43 161.41 456.08 C 161.18 459.05 163.06 461.51 165.87 462.34 C 172.93 462.67 179.90 461.29 186.95 461.40 C 202.18 459.74 217.60 458.44 232.39 454.20 C 232.41 457.62 232.41 461.05 232.44 464.48 L 231.71 464.50 C 205.68 464.64 179.65 464.52 153.62 464.55 C 153.31 464.55 152.69 464.55 152.38 464.55 C 152.47 426.07 152.50 387.58 152.37 349.11 Z" />
<path fill="#010516" opacity="1.00" d=" M 750.33 349.07 C 777.02 349.11 803.72 349.00 830.41 349.11 C 830.41 352.54 830.40 355.97 830.35 359.40 C 812.36 354.20 793.51 352.88 774.91 351.62 C 770.66 351.63 766.23 350.63 762.10 351.99 C 759.46 353.20 759.31 356.43 759.28 358.94 C 759.30 371.27 759.22 383.61 759.32 395.94 C 759.18 398.40 761.09 400.61 763.48 401.04 C 782.00 401.42 800.55 401.13 819.08 401.16 C 818.99 404.33 818.82 407.49 818.91 410.66 C 801.09 407.49 783.11 404.24 764.94 404.18 C 762.40 403.87 759.42 405.43 759.46 408.28 C 759.20 421.50 759.54 434.74 759.28 447.97 C 759.33 451.50 759.03 455.07 759.65 458.56 C 760.03 460.70 762.25 461.47 763.96 462.35 C 771.03 462.72 778.01 461.32 785.07 461.37 C 800.30 459.86 815.64 458.29 830.46 454.26 C 830.39 457.67 830.36 461.07 830.43 464.49 C 830.14 464.49 829.54 464.51 829.25 464.52 C 803.33 464.64 777.42 464.47 751.51 464.59 C 751.22 464.59 750.65 464.59 750.36 464.59 C 750.28 426.09 750.35 387.58 750.33 349.07 Z" />
</g>
<g id="#010518ff">
<path fill="#010518" opacity="1.00" d=" M 248.39 349.12 C 275.11 349.11 301.83 348.92 328.55 349.19 C 328.47 352.46 328.48 355.73 328.53 359.01 C 307.70 354.12 286.31 351.97 264.95 351.30 C 262.90 351.28 260.58 351.38 259.02 352.90 C 257.25 354.80 257.46 357.58 257.34 359.98 C 257.42 371.95 257.25 383.92 257.41 395.88 C 257.30 398.25 259.23 400.37 261.45 400.97 C 280.00 401.45 298.60 401.20 317.16 401.10 C 317.32 404.32 317.24 407.55 317.34 410.79 C 301.69 407.72 285.88 405.24 269.96 404.27 C 266.13 404.32 261.98 403.47 258.51 405.55 C 258.03 406.98 257.40 408.41 257.48 409.97 C 257.46 423.30 257.62 436.63 257.35 449.96 C 257.44 453.82 256.68 458.15 259.40 461.34 C 265.12 463.33 271.17 461.90 277.03 461.55 C 286.37 461.47 295.62 460.06 304.87 458.89 C 312.83 457.82 320.78 456.46 328.51 454.23 C 328.51 457.67 328.50 461.11 328.50 464.55 L 328.09 464.55 C 301.57 464.65 275.05 464.39 248.54 464.66 C 248.37 426.14 248.68 387.63 248.39 349.12 Z" />
</g>
<g id="#020417ff">
<path fill="#020417" opacity="1.00" d=" M 344.90 349.24 C 356.58 348.85 368.29 349.23 379.98 349.06 C 394.05 348.68 408.32 353.78 418.57 363.51 C 429.24 373.71 435.41 388.26 435.82 402.96 C 436.89 416.76 433.27 431.00 425.26 442.35 C 416.26 455.20 401.29 463.14 385.76 464.49 C 372.61 464.65 359.46 464.39 346.31 464.60 L 345.27 464.65 C 344.30 456.51 344.85 448.20 344.97 440.00 C 344.75 438.00 344.76 436.00 344.96 434.00 C 344.70 431.34 344.71 428.66 344.94 426.00 C 344.66 400.42 344.74 374.82 344.90 349.24 M 355.50 352.45 C 352.30 358.90 354.82 366.13 353.88 372.94 C 354.21 387.97 353.59 402.99 354.12 418.01 C 353.50 429.68 353.87 441.38 353.76 453.06 C 353.72 456.35 353.91 460.02 356.47 462.43 C 364.97 462.76 373.50 462.91 382.00 462.44 C 392.68 461.08 403.20 456.46 410.67 448.57 C 420.30 438.92 425.14 425.38 426.27 411.99 C 427.34 396.62 423.50 380.39 413.46 368.42 C 406.20 359.45 395.37 353.74 384.02 352.05 C 376.73 350.71 369.32 351.45 361.97 351.31 C 359.74 351.18 357.57 351.69 355.50 352.45 Z" />
</g>
<g id="#000316ff">
<path fill="#000316" opacity="1.00" d=" M 451.40 349.20 C 454.36 349.05 457.33 349.04 460.30 349.07 C 460.37 384.37 460.28 419.66 460.35 454.96 C 460.25 457.75 461.09 461.08 464.11 462.01 C 471.05 463.23 478.01 461.23 484.98 461.43 C 500.60 460.00 516.31 458.38 531.52 454.31 C 531.44 457.69 531.42 461.08 531.49 464.46 C 530.85 464.48 529.57 464.50 528.93 464.52 C 503.53 464.60 478.13 464.55 452.73 464.53 C 452.41 464.52 451.77 464.50 451.44 464.49 C 451.44 426.06 451.52 387.63 451.40 349.20 Z" />
</g>
<g id="#020515ff">
<path fill="#020515" opacity="1.00" d=" M 545.62 349.37 C 572.32 348.72 599.07 349.19 625.79 349.11 C 625.80 352.58 625.75 356.06 625.73 359.54 C 621.39 357.59 616.63 357.04 612.02 356.13 C 595.49 353.29 578.75 351.76 562.00 351.30 C 559.80 351.11 557.79 352.03 555.87 352.93 C 554.09 358.45 554.82 364.28 554.70 369.97 C 554.70 378.34 554.69 386.70 554.69 395.07 C 554.53 397.82 556.51 400.80 559.36 401.11 C 577.77 401.29 596.19 401.27 614.60 401.11 C 614.47 404.36 614.51 407.62 614.55 410.88 C 602.13 408.19 589.55 406.28 576.90 405.05 C 570.92 404.31 564.86 403.94 558.85 404.38 C 556.18 404.51 554.59 407.48 554.77 409.92 C 554.74 424.28 554.85 438.64 554.67 453.00 C 554.66 456.35 554.90 461.03 558.89 462.02 C 563.20 462.81 567.63 462.14 571.96 461.76 C 589.99 460.99 608.01 458.66 625.58 454.49 L 626.09 454.90 C 625.86 458.11 625.66 461.33 625.75 464.56 C 599.43 464.48 573.11 464.67 546.80 464.46 C 546.52 464.44 545.95 464.41 545.67 464.40 C 545.77 426.06 545.84 387.71 545.62 349.37 Z" />
</g>
<g id="#010517ff">
<path fill="#010517" opacity="1.00" d=" M 642.33 349.14 C 645.50 349.45 649.45 348.12 652.17 349.88 C 676.30 384.03 700.61 418.07 724.76 452.20 C 725.69 453.36 726.54 455.05 728.35 454.86 C 729.32 451.66 728.47 448.27 728.51 444.99 C 726.63 418.00 724.85 391.01 723.03 364.01 C 722.29 359.08 722.93 354.00 721.66 349.16 C 724.97 349.03 728.28 349.06 731.60 349.16 C 731.40 387.60 731.62 426.04 731.50 464.47 C 728.34 464.49 725.18 464.55 722.03 464.29 C 714.29 452.42 705.56 441.21 697.55 429.51 C 681.13 406.55 664.82 383.52 648.44 360.53 C 647.72 359.55 646.65 358.96 645.69 358.28 C 644.27 360.67 644.93 363.40 645.20 365.99 C 647.24 398.83 649.71 431.63 651.73 464.47 C 648.60 464.46 645.48 464.47 642.36 464.43 C 642.41 426.00 642.41 387.57 642.33 349.14 Z" />
</g>
<g id="#dcf8f8ff">
<path fill="#dcf8f8" opacity="1.00" d=" M 166.89 400.15 C 180.92 399.86 194.96 400.20 208.99 400.04 C 213.37 400.03 217.78 399.80 222.13 400.45 C 221.84 400.61 221.24 400.92 220.94 401.07 C 202.96 401.45 184.96 401.00 166.97 401.30 L 166.89 400.15 Z" />
</g>
<g id="#dcf7f7ff">
<path fill="#dcf7f7" opacity="1.00" d=" M 261.45 400.97 C 263.16 400.05 265.12 399.95 267.02 399.99 C 276.02 400.13 285.03 399.91 294.04 400.11 C 302.06 400.31 310.12 399.48 318.12 400.43 C 317.88 400.60 317.40 400.93 317.16 401.10 C 298.60 401.20 280.00 401.45 261.45 400.97 Z" />
</g>
<g id="#daf9f8ff">
<path fill="#daf9f8" opacity="1.00" d=" M 559.36 401.11 C 561.32 399.77 563.75 400.12 565.99 400.04 C 581.00 400.10 596.02 400.09 611.03 400.01 C 612.36 399.91 613.55 400.27 614.60 401.11 C 596.19 401.27 577.77 401.29 559.36 401.11 Z" />
</g>
<g id="#dcf9f7ff">
<path fill="#dcf9f7" opacity="1.00" d=" M 763.48 401.04 C 764.10 400.77 765.33 400.25 765.95 399.99 C 784.00 400.32 802.10 399.62 820.14 400.38 C 819.88 400.57 819.35 400.97 819.08 401.16 C 800.55 401.13 782.00 401.42 763.48 401.04 Z" />
</g>
<g id="#d0f1efff">
<path fill="#d0f1ef" opacity="1.00" d=" M 153.62 464.55 C 179.65 464.52 205.68 464.64 231.71 464.50 L 231.90 465.64 C 206.35 466.82 180.72 465.29 155.17 466.48 C 154.78 466.00 154.00 465.03 153.62 464.55 Z" />
<path fill="#d0f1ef" opacity="1.00" d=" M 452.73 464.53 C 478.13 464.55 503.53 464.60 528.93 464.52 C 528.92 465.03 528.90 466.06 528.90 466.57 C 524.29 465.87 519.62 466.11 514.99 466.10 C 494.65 465.83 474.30 466.24 453.97 466.02 C 453.66 465.64 453.04 464.90 452.73 464.53 Z" />
</g>
<g id="#cef0edff">
<path fill="#cef0ed" opacity="1.00" d=" M 248.54 464.66 C 275.05 464.39 301.57 464.65 328.09 464.55 C 327.28 466.52 324.71 465.76 323.07 466.08 C 299.70 466.00 276.33 466.17 252.97 466.17 C 251.21 466.12 249.46 465.90 247.72 465.67 L 248.54 464.66 Z" />
</g>
<g id="#d4faf7ff">
<path fill="#d4faf7" opacity="1.00" d=" M 344.73 465.71 C 345.12 465.43 345.92 464.88 346.31 464.60 C 359.46 464.39 372.61 464.65 385.76 464.49 C 386.37 464.78 387.57 465.35 388.18 465.63 C 376.48 466.61 364.72 465.62 352.99 466.06 C 350.23 466.19 347.47 466.05 344.73 465.71 Z" />
</g>
<g id="#cff0edff">
<path fill="#cff0ed" opacity="1.00" d=" M 546.80 464.46 C 573.11 464.67 599.43 464.48 625.75 464.56 L 625.78 465.78 C 620.51 466.42 615.21 466.12 609.92 466.13 C 589.26 465.93 568.58 466.38 547.93 466.08 C 547.65 465.67 547.08 464.86 546.80 464.46 Z" />
</g>
<g id="#d0f0eeff">
<path fill="#d0f0ee" opacity="1.00" d=" M 751.51 464.59 C 777.42 464.47 803.33 464.64 829.25 464.52 C 828.99 466.58 826.64 466.19 825.20 466.35 C 801.18 465.44 777.12 466.67 753.10 465.90 C 752.70 465.57 751.91 464.91 751.51 464.59 Z" />
</g>
<g id="#d6f6f0ff">
<path fill="#d6f6f0" opacity="1.00" d=" M 881.90 467.64 C 884.80 466.44 887.98 466.92 891.04 466.93 C 894.41 467.01 897.85 466.58 901.15 467.51 C 894.77 468.31 888.28 468.21 881.90 467.64 Z" />
</g>
<g id="#bde6ddff">
<path fill="#bde6dd" opacity="1.00" d=" M 1018.92 497.94 C 1021.22 496.06 1023.96 494.83 1027.01 495.20 C 1025.64 498.79 1023.05 501.69 1020.54 504.52 C 1005.08 520.87 987.49 535.10 969.12 548.03 C 969.88 545.45 972.08 543.75 973.74 541.74 C 987.17 525.60 1001.89 510.34 1018.92 497.94 Z" />
</g>
<g id="#cbe0e3ff">
<path fill="#cbe0e3" opacity="1.00" d=" M 708.45 530.79 C 711.44 528.67 714.02 525.36 717.97 525.22 C 715.41 528.03 712.97 530.93 710.65 533.94 C 709.87 535.10 708.25 534.51 707.11 534.82 C 707.34 533.42 707.02 531.63 708.45 530.79 Z" />
</g>
<g id="#c8dde0ff">
<path fill="#c8dde0" opacity="1.00" d=" M 270.19 550.22 C 271.31 549.58 272.40 549.57 273.47 550.20 C 274.01 552.60 267.31 552.65 270.19 550.22 Z" />
</g>
<g id="#dae9f4ff">
<path fill="#dae9f4" opacity="1.00" d=" M 290.61 557.63 C 293.63 554.28 297.32 551.34 301.74 550.14 C 297.69 553.76 293.40 557.10 289.34 560.71 C 289.62 559.63 289.76 558.44 290.61 557.63 Z" />
</g>
<g id="#cbe5e4ff">
<path fill="#cbe5e4" opacity="1.00" d=" M 622.26 561.98 C 622.41 558.21 624.46 554.94 627.63 552.94 C 628.29 556.93 625.66 560.29 622.26 561.98 Z" />
</g>
<g id="#bce6dfff">
<path fill="#bce6df" opacity="1.00" d=" M 574.11 586.27 C 579.74 582.95 584.86 578.76 590.84 576.05 C 576.76 590.67 562.26 605.34 544.36 615.28 C 542.49 616.37 540.31 616.61 538.20 616.86 C 537.62 611.43 542.96 608.62 546.36 605.44 C 551.57 600.50 557.84 596.95 563.56 592.68 C 566.95 590.34 570.79 588.73 574.11 586.27 Z" />
</g>
<g id="#bee7dfff">
<path fill="#bee7df" opacity="1.00" d=" M 913.49 585.62 C 919.04 582.61 924.04 578.66 929.81 576.04 C 925.58 580.37 921.32 584.70 916.94 588.86 C 912.03 592.25 908.52 597.20 903.63 600.60 C 896.88 606.77 889.31 611.97 881.17 616.12 C 879.92 616.61 878.56 616.68 877.27 616.93 C 877.47 615.12 876.86 612.87 878.48 611.55 C 882.54 607.19 887.17 603.40 892.03 599.96 C 899.40 595.50 905.95 589.82 913.49 585.62 Z" />
</g>
</svg>
